<svg xmlns="http://www.w3.org/2000/svg" id="Capa_1" data-name="Capa 1" viewBox="0 0 123.69 9.87"><defs><style>.cls-1{fill:#002f86;}.cls-2{fill:#009cde;}.cls-3{fill:#25a1cb;}.cls-4{fill:#eb001b;}.cls-5{fill:#f79e1b;}.cls-6{fill:#ff5f00;}.cls-7{fill:#142688;}</style></defs><title>Metodos-de-pago-v1</title><path class="cls-1" d="M20.45,2.7H19a.42.42,0,0,0-.34.18L16.77,5.7,16,3a.42.42,0,0,0-.39-.29H14.25A.23.23,0,0,0,14,3h0s0,0,0,0l1.53,4.5-1.48,2a.25.25,0,0,0,.07.35h0a.29.29,0,0,0,.13,0h1.39A.4.4,0,0,0,16,9.75l4.62-6.66a.25.25,0,0,0,0-.34h-.16Z" transform="translate(0 -0.01)"></path><path class="cls-1" d="M13.08,2.69H11.7a.22.22,0,0,0-.23.21h0V3.3l-.1-.15a2,2,0,0,0-1.63-.6,3.23,3.23,0,0,0-3.1,2.8,2.61,2.61,0,0,0,.54,2.12,2.1,2.1,0,0,0,1.72.72,2.71,2.71,0,0,0,1.92-.79v.38a.25.25,0,0,0,.22.28H12.3a.38.38,0,0,0,.38-.34L13.44,3a.28.28,0,0,0-.2-.32A.29.29,0,0,0,13.08,2.69Zm-3.48,4a1.15,1.15,0,0,1-.92-.37,1.19,1.19,0,0,1-.22-1A1.55,1.55,0,0,1,10,4a1.08,1.08,0,0,1,.92.38,1.1,1.1,0,0,1,.24,1A1.54,1.54,0,0,1,9.6,6.7Z" transform="translate(0 -0.01)"></path><path class="cls-1" d="M6.56.78A2.64,2.64,0,0,0,4.46,0H1.57a.44.44,0,0,0-.41.35L0,7.78A.25.25,0,0,0,.21,8h1.4A.43.43,0,0,0,2,7.72l.31-2a.44.44,0,0,1,.41-.35h.91A3,3,0,0,0,6.91,2.75V2.62A2.26,2.26,0,0,0,6.56.78Zm-1.78,2c-.16,1-1,1-1.72,1H2.62L3,1.9a.26.26,0,0,1,.23-.2H3.4c.53,0,1,0,1.23.29a1,1,0,0,1,.16.75Z" transform="translate(0 -0.01)"></path><path class="cls-2" d="M35.32.21,34.08,7.76a.25.25,0,0,0,.21.28h1.26a.42.42,0,0,0,.4-.33L37.12.3a.26.26,0,0,0-.2-.29H35.55A.23.23,0,0,0,35.32.21Z" transform="translate(0 -0.01)"></path><path class="cls-2" d="M33.69,2.68H32.31a.25.25,0,0,0-.25.2v.38L32,3.11a1.94,1.94,0,0,0-1.63-.59,3.19,3.19,0,0,0-3.1,2.79,2.64,2.64,0,0,0,.51,2.12,2.16,2.16,0,0,0,1.75.72,2.67,2.67,0,0,0,1.92-.79v.38a.24.24,0,0,0,.19.28H32.9a.42.42,0,0,0,.41-.35L34,3a.23.23,0,0,0-.13-.29A.22.22,0,0,0,33.69,2.68Zm-3.48,4A1.06,1.06,0,0,1,29,5.76v0a1.15,1.15,0,0,1,0-.37A1.54,1.54,0,0,1,30.61,4a1.22,1.22,0,0,1,.92.38,1.2,1.2,0,0,1,.22,1,1.51,1.51,0,0,1-1.54,1.29Z" transform="translate(0 -0.01)"></path><path class="cls-2" d="M27.17.75A2.79,2.79,0,0,0,25,0H22.17a.42.42,0,0,0-.39.33L20.62,7.76a.25.25,0,0,0,.21.28h1.5a.29.29,0,0,0,.28-.25l.32-2.1a.42.42,0,0,1,.39-.34h.91a3,3,0,0,0,3.29-2.59V2.61A2.28,2.28,0,0,0,27.17.75Zm-1.79,2c-.15,1-.94,1-1.72,1h-.43l.28-1.94a.26.26,0,0,1,.25-.21H24a1.73,1.73,0,0,1,1.23.29.94.94,0,0,1,.15.81Z" transform="translate(0 -0.01)"></path><path class="cls-3" d="M97.46,2.38l.8,2H96.62Zm16.74.08h-3.13v.89h3.13V4.64h-3v1h3.13v.77l2.17-2.34-2.2-2.44ZM99.62,0h4.17l.93,2,.86-2H116.4l1.12,1.24L118.69,0h5L120,4l3.63,4h-5l-1.13-1.24L116.35,8H98.57l-.51-1.24H96.88L96.37,8H92.28l3.44-8Zm9,1.12h-2.34l-1.57,3.69L103,1.14H100.7v5l-2.15-5H96.46L94,6.9h1.63l.51-1.24h2.71l.51,1.24h2.85V2.8L104,6.91h1.24l1.82-4.1v4.1h1.54ZM118.37,4,121,1.13h-1.9l-1.67,1.81-1.62-1.81h-6.2V6.91h6.06l1.68-1.82L119,6.91h2L118.39,4Z" transform="translate(0 -0.01)"></path><circle class="cls-4" cx="78.02" cy="4.02" r="4.01"></circle><circle class="cls-5" cx="82.6" cy="4.02" r="4.01"></circle><path class="cls-6" d="M82,4A3.92,3.92,0,0,0,80.31.77,4.05,4.05,0,0,0,78.59,4a4,4,0,0,0,1.72,3.26A3.9,3.9,0,0,0,82,4Z" transform="translate(0 -0.01)"></path><path class="cls-7" d="M65.69,2.14h-.3a13.22,13.22,0,0,0-1,3h1.9A21.82,21.82,0,0,0,65.69,2.14ZM68.59,8h-1.7c-.1,0-.1,0-.2-.1l-.2-.9-.1-.2H64c-.1,0-.2,0-.2.2l-.3.9a.09.09,0,0,1-.08.1H61.29l.2-.5,2.9-6.8c0-.5.3-.7.8-.7h1.5c.1,0,.2,0,.2.2l1.4,6.5a4.18,4.18,0,0,1,.2,1.1c.12.1.12.1.12.2ZM55.2,7.74l.4-1.8a.35.35,0,0,1,.2.1,4,4,0,0,0,2.1.4,1.94,1.94,0,0,0,.7-.2c.5-.2.5-.7.1-1.1a5.1,5.1,0,0,0-.8-.5,4.11,4.11,0,0,1-1.1-.7,2,2,0,0,1-.1-3.1c.6-.4.9-.8,1.7-.8a13.4,13.4,0,0,1,3.1.2h.1a10.78,10.78,0,0,1-.4,1.7,4.34,4.34,0,0,0-1.5-.4,2.74,2.74,0,0,0-.9.1.52.52,0,0,0-.4.2.48.48,0,0,0,0,.68h0l.5.4a10.59,10.59,0,0,1,1.1.6,2.15,2.15,0,0,1,.92,2.9,2.22,2.22,0,0,1-.72.8,1.78,1.78,0,0,1-1.4.6,11.76,11.76,0,0,1-3.4-.2C55.29,7.84,55.29,7.84,55.2,7.74ZM51.7,8a3.78,3.78,0,0,1,.2-1c.5-2.2,1-4.5,1.4-6.7.1-.2.1-.3.3-.3h1.8a31.43,31.43,0,0,1-.7,3.2c-.3,1.5-.6,3-1,4.5,0,.2-.1.2-.3.2M42.4.24c0-.1.2-.2.3-.2h3.4a1,1,0,0,1,1,.8l.9,4.4c0,.1,0,.1.1.2a.09.09,0,0,1,.1-.1h0L50.3.24c-.1-.1,0-.2.1-.2h2.1c0,.1,0,.1-.1.2l-3.1,7.3c-.1.2-.1.3-.2.4s-.3,0-.5,0H47.1c-.1,0-.2,0-.2-.2l-1.6-6.2a2,2,0,0,0-.9-.6,6.67,6.67,0,0,0-1.9-.5Z" transform="translate(0 -0.01)"></path></svg>